<svg width="15" height="14" viewBox="0 0 15 14" fill="none" xmlns="http://www.w3.org/2000/svg">
<path fill-rule="evenodd" clip-rule="evenodd" d="M0.5 7C0.5 6.51675 0.891751 6.125 1.375 6.125H13.625C14.1082 6.125 14.5 6.51675 14.5 7C14.5 7.48325 14.1082 7.875 13.625 7.875H1.375C0.891751 7.875 0.5 7.48325 0.5 7Z" fill="#AA9DAF"/>
<path fill-rule="evenodd" clip-rule="evenodd" d="M6.88128 0.256282C7.22299 -0.0854272 7.77701 -0.0854272 8.11872 0.256282L14.2437 6.38128C14.5854 6.72299 14.5854 7.27701 14.2437 7.61872L8.11872 13.7437C7.77701 14.0854 7.22299 14.0854 6.88128 13.7437C6.53957 13.402 6.53957 12.848 6.88128 12.5063L12.3876 7L6.88128 1.49372C6.53957 1.15201 6.53957 0.59799 6.88128 0.256282Z" fill="#AA9DAF"/>
</svg>
