<svg width="19" height="17" viewBox="0 0 19 17" fill="none" xmlns="http://www.w3.org/2000/svg">
<path fill-rule="evenodd" clip-rule="evenodd" d="M5.03923 7.18632C5.91195 6.82482 6.87227 6.73024 7.79875 6.91453C8.72522 7.09882 9.57625 7.5537 10.2442 8.22165C10.9122 8.8896 11.367 9.74062 11.5513 10.6671C11.7356 11.5936 11.641 12.5539 11.2795 13.4266C10.918 14.2993 10.3059 15.0453 9.52044 15.5701C8.73501 16.0949 7.8116 16.375 6.86697 16.375H1.13563C0.865183 16.375 0.624234 16.2042 0.534714 15.949C0.44573 15.6953 0.525661 15.4133 0.734034 15.244L0.738281 15.2403C0.744025 15.2354 0.755084 15.2257 0.770717 15.2112C0.802006 15.1821 0.851452 15.1339 0.913182 15.066C1.03673 14.9301 1.20861 14.7163 1.38276 14.4203C1.72888 13.8319 2.09085 12.9075 2.09085 11.5989C2.09085 10.6542 2.37097 9.73083 2.89578 8.94541C3.42058 8.15998 4.16651 7.54781 5.03923 7.18632ZM7.55028 8.16369C6.87086 8.02854 6.16663 8.0979 5.52663 8.363C4.88663 8.62809 4.33962 9.07702 3.95476 9.653C3.5699 10.229 3.36449 10.9061 3.36449 11.5989C3.36449 13.1559 2.93045 14.3012 2.48054 15.066C2.47356 15.0779 2.46658 15.0897 2.45959 15.1014H6.86697C7.5597 15.1014 8.23687 14.8959 8.81285 14.5111C9.38883 14.1262 9.83775 13.5792 10.1028 12.9392C10.3679 12.2992 10.4373 11.595 10.3022 10.9156C10.167 10.2362 9.83344 9.61207 9.34361 9.12224C8.85377 8.63241 8.22969 8.29883 7.55028 8.16369ZM0.737305 15.2413C0.737303 15.2413 0.737302 15.2413 0.7373 15.2413L0.73704 15.2415C0.737128 15.2415 0.737217 15.2414 0.737305 15.2413Z" fill="#AA9DAF"/>
<path fill-rule="evenodd" clip-rule="evenodd" d="M12.639 4.10418C11.0792 5.50064 9.75546 7.15735 9.00244 8.17314C8.79299 8.45568 8.39416 8.51493 8.11162 8.30548C7.82908 8.09603 7.76983 7.6972 7.97928 7.41466C8.75462 6.36876 10.1373 4.63443 11.7895 3.15527C13.4129 1.70183 15.4267 0.375 17.454 0.375C17.8057 0.375 18.0909 0.660112 18.0909 1.01182C18.0909 3.03918 16.764 5.05295 15.3106 6.67639C13.8314 8.32854 12.0971 9.71124 11.0512 10.4866C10.7687 10.696 10.3698 10.6368 10.1604 10.3542C9.95093 10.0717 10.0102 9.67287 10.2927 9.46342C11.3085 8.7104 12.9652 7.38663 14.3617 5.82684C15.5676 4.4799 16.494 3.05017 16.7478 1.71805C15.4157 1.9719 13.986 2.89827 12.639 4.10418Z" fill="#AA9DAF"/>
<path fill-rule="evenodd" clip-rule="evenodd" d="M9.57611 5.44308C9.74897 5.13679 10.1374 5.02862 10.4437 5.20148C11.6233 5.86721 12.5987 6.84256 13.2644 8.02218C13.4373 8.32848 13.3291 8.7169 13.0228 8.88976C12.7165 9.06262 12.3281 8.95445 12.1552 8.64816C11.6035 7.67061 10.7953 6.86235 9.81771 6.31066C9.51142 6.1378 9.40325 5.74937 9.57611 5.44308Z" fill="#AA9DAF"/>
</svg>
