<svg width="18" height="15" viewBox="0 0 18 15" fill="none" xmlns="http://www.w3.org/2000/svg">
<path fill-rule="evenodd" clip-rule="evenodd" d="M2.77083 1.80556C2.34483 1.80556 1.99306 2.15733 1.99306 2.58333V11.9167C1.99306 12.3427 2.34483 12.6944 2.77083 12.6944H15.2153C15.6413 12.6944 15.9931 12.3427 15.9931 11.9167V2.58333C15.9931 2.15733 15.6413 1.80556 15.2153 1.80556H2.77083ZM0.4375 2.58333C0.4375 1.29822 1.48572 0.25 2.77083 0.25H15.2153C16.5004 0.25 17.5486 1.29822 17.5486 2.58333V11.9167C17.5486 13.2018 16.5004 14.25 15.2153 14.25H2.77083C1.48572 14.25 0.4375 13.2018 0.4375 11.9167V2.58333Z" fill="#AA9DAF"/>
<path fill-rule="evenodd" clip-rule="evenodd" d="M0.578103 2.13724C0.824437 1.78533 1.3094 1.69975 1.66131 1.94608L8.99306 7.07831L16.3248 1.94608C16.6767 1.69975 17.1617 1.78533 17.408 2.13724C17.6544 2.48914 17.5688 2.97411 17.2169 3.22044L9.43909 8.66489C9.17128 8.85235 8.81484 8.85235 8.54703 8.66489L0.769257 3.22044C0.417352 2.97411 0.33177 2.48914 0.578103 2.13724Z" fill="#AA9DAF"/>
</svg>
