<svg width="36" height="31" viewBox="0 0 36 31" fill="none" xmlns="http://www.w3.org/2000/svg">
<path fill-rule="evenodd" clip-rule="evenodd" d="M26.7458 0.625033C27.4029 0.622647 28.054 0.75022 28.6617 1.00042C29.2702 1.25098 29.823 1.61956 30.2884 2.08488C30.7537 2.55021 31.1223 3.10308 31.3728 3.71158C31.623 4.31914 31.7506 4.97016 31.7482 5.62719L31.7482 5.63025L30.4982 5.62501H31.7482V5.62719V23.1249C31.7482 23.8153 31.1886 24.3749 30.4982 24.3749C29.8079 24.3749 29.2482 23.8153 29.2482 23.1249V5.62501L29.2483 5.61977C29.2496 5.29177 29.186 4.96674 29.0611 4.66344C28.9363 4.36014 28.7526 4.08458 28.5206 3.85264C28.2887 3.62071 28.0131 3.437 27.7098 3.31211C27.4065 3.18723 27.0815 3.12364 26.7535 3.12501L26.7482 3.12502H5.49834C4.80799 3.12502 4.24835 2.56538 4.24835 1.87503C4.24835 1.18467 4.80799 0.625033 5.49834 0.625033H26.7458ZM26.7458 0.625033L26.743 0.625044L26.7482 1.87503V0.625033H26.7458Z" fill="url(#paint0_linear_10_279)"/>
<path fill-rule="evenodd" clip-rule="evenodd" d="M14.2483 11.8749C14.2483 11.1846 14.8079 10.625 15.4983 10.625H25.4983C26.1886 10.625 26.7482 11.1846 26.7482 11.8749C26.7482 12.5653 26.1886 13.1249 25.4983 13.1249H15.4983C14.8079 13.1249 14.2483 12.5653 14.2483 11.8749Z" fill="url(#paint1_linear_10_279)"/>
<path fill-rule="evenodd" clip-rule="evenodd" d="M14.2483 16.8749C14.2483 16.1846 14.8079 15.6249 15.4983 15.6249H25.4983C26.1886 15.6249 26.7482 16.1846 26.7482 16.8749C26.7482 17.5653 26.1886 18.1249 25.4983 18.1249H15.4983C14.8079 18.1249 14.2483 17.5653 14.2483 16.8749Z" fill="url(#paint2_linear_10_279)"/>
<path fill-rule="evenodd" clip-rule="evenodd" d="M5.79511 3.1448C5.39286 3.09671 4.98496 3.1471 4.60651 3.29161C4.22805 3.43613 3.89039 3.67045 3.62258 3.97441C3.35477 4.27836 3.16483 4.64285 3.06913 5.03649C2.97342 5.43013 2.97481 5.84113 3.07317 6.23411C3.17153 6.6271 3.36391 6.99029 3.63377 7.29244C4.09364 7.80733 4.04903 8.59752 3.53414 9.05739C3.01926 9.51725 2.22906 9.47265 1.76919 8.95776C1.22948 8.35348 0.844708 7.62709 0.647986 6.84111C0.451265 6.05515 0.448492 5.23314 0.639907 4.44586C0.831321 3.65858 1.21119 2.92961 1.74681 2.3217C2.28243 1.71379 2.95776 1.24514 3.71467 0.956111C4.47158 0.667077 5.28738 0.566313 6.09187 0.66249C6.89636 0.758667 7.66542 1.0489 8.33286 1.50822C9.0003 1.96754 9.54613 2.58217 9.92335 3.29921C10.3006 4.01626 10.4979 4.81423 10.4983 5.62444V25.6244C10.4985 26.0295 10.5972 26.4284 10.7858 26.787C10.9744 27.1455 11.2473 27.4528 11.5811 27.6825C11.9148 27.9121 12.2993 28.0572 12.7015 28.1053C13.1038 28.1534 13.5117 28.103 13.8901 27.9585C14.2686 27.814 14.6063 27.5797 14.8741 27.2757C15.1419 26.9718 15.3318 26.6073 15.4275 26.2136C15.5232 25.82 15.5219 25.409 15.4235 25.016C15.3251 24.623 15.1327 24.2598 14.8629 23.9577C14.5346 23.5902 14.4529 23.0641 14.6543 22.6143C14.8556 22.1645 15.3024 21.875 15.7952 21.875H33.2951C33.6508 21.875 33.9897 22.0266 34.2268 22.2917C34.8704 23.0113 35.2919 23.9018 35.4405 24.8557C35.589 25.8096 35.4582 26.7861 35.0639 27.6673C34.6695 28.5485 34.0285 29.2967 33.2182 29.8216C32.4081 30.3463 31.4634 30.6253 30.4982 30.625H12.9983C12.9706 30.625 12.943 30.6241 12.9157 30.6223C12.7454 30.6195 12.5748 30.608 12.4048 30.5876C11.6003 30.4915 10.8312 30.2012 10.1638 29.7419C9.49635 29.2826 8.95053 28.668 8.57331 27.9509C8.19609 27.2339 7.99877 26.4359 7.99833 25.6257V5.62578C7.99812 5.22067 7.89946 4.82169 7.71085 4.46316C7.52223 4.10464 7.24932 3.79732 6.9156 3.56767C6.58188 3.33801 6.19735 3.19289 5.79511 3.1448ZM17.3273 28.125H30.4982C30.9809 28.1252 31.454 27.9857 31.8591 27.7233C32.2643 27.4609 32.5848 27.0868 32.7819 26.6462C32.9791 26.2056 33.0445 25.7173 32.9702 25.2404C32.9226 24.9341 32.8186 24.6409 32.6651 24.375H17.84C17.843 24.3863 17.8458 24.3977 17.8487 24.409C18.0454 25.195 18.0482 26.017 17.8567 26.8043C17.7437 27.2692 17.565 27.7137 17.3273 28.125Z" fill="url(#paint3_linear_10_279)"/>
<defs>
<linearGradient id="paint0_linear_10_279" x1="-2.44914" y1="30.625" x2="38.0791" y2="30.625" gradientUnits="userSpaceOnUse">
<stop stop-color="#9155C0"/>
<stop offset="0.9998" stop-color="#5DE0A3"/>
<stop offset="0.9999" stop-color="#5DE9A6"/>
<stop offset="1" stop-color="#5C3A77" stop-opacity="0"/>
</linearGradient>
<linearGradient id="paint1_linear_10_279" x1="-2.44914" y1="30.625" x2="38.0791" y2="30.625" gradientUnits="userSpaceOnUse">
<stop stop-color="#9155C0"/>
<stop offset="0.9998" stop-color="#5DE0A3"/>
<stop offset="0.9999" stop-color="#5DE9A6"/>
<stop offset="1" stop-color="#5C3A77" stop-opacity="0"/>
</linearGradient>
<linearGradient id="paint2_linear_10_279" x1="-2.44914" y1="30.625" x2="38.0791" y2="30.625" gradientUnits="userSpaceOnUse">
<stop stop-color="#9155C0"/>
<stop offset="0.9998" stop-color="#5DE0A3"/>
<stop offset="0.9999" stop-color="#5DE9A6"/>
<stop offset="1" stop-color="#5C3A77" stop-opacity="0"/>
</linearGradient>
<linearGradient id="paint3_linear_10_279" x1="-2.44914" y1="30.625" x2="38.0791" y2="30.625" gradientUnits="userSpaceOnUse">
<stop stop-color="#9155C0"/>
<stop offset="0.9998" stop-color="#5DE0A3"/>
<stop offset="0.9999" stop-color="#5DE9A6"/>
<stop offset="1" stop-color="#5C3A77" stop-opacity="0"/>
</linearGradient>
</defs>
</svg>
