<svg width="16" height="16" viewBox="0 0 16 16" fill="none" xmlns="http://www.w3.org/2000/svg">
<path fill-rule="evenodd" clip-rule="evenodd" d="M8 1.45455C4.38505 1.45455 1.45455 4.38505 1.45455 8C1.45455 11.615 4.38505 14.5455 8 14.5455C11.615 14.5455 14.5455 11.615 14.5455 8C14.5455 4.38505 11.615 1.45455 8 1.45455ZM0 8C0 3.58172 3.58172 0 8 0C12.4183 0 16 3.58172 16 8C16 12.4183 12.4183 16 8 16C3.58172 16 0 12.4183 0 8Z" fill="#33CD83"/>
<path fill-rule="evenodd" clip-rule="evenodd" d="M8.18772 5.10854C7.84916 5.05047 7.50097 5.11409 7.20482 5.28814C6.90867 5.46219 6.68368 5.73543 6.56969 6.05947C6.4364 6.43837 6.02119 6.63748 5.64229 6.50419C5.26339 6.3709 5.06428 5.95569 5.19757 5.57679C5.42555 4.92871 5.87553 4.38223 6.46783 4.03413C7.06012 3.68604 7.7565 3.55879 8.43362 3.67494C9.11074 3.79108 9.72491 4.14312 10.1673 4.6687C10.6097 5.19417 10.8518 5.85921 10.8509 6.54607C10.8506 7.65905 10.0254 8.39405 9.43614 8.78689C9.11932 8.99811 8.80767 9.15342 8.57809 9.25545C8.46227 9.30692 8.36474 9.34599 8.29447 9.37276C8.25927 9.38617 8.23073 9.39656 8.20996 9.40395L8.1847 9.41279L8.17665 9.41554L8.17382 9.4165L8.17271 9.41687C8.17249 9.41694 8.17179 9.41717 7.94181 8.72722L8.17179 9.41717C7.79075 9.54419 7.37888 9.33825 7.25186 8.95721C7.12493 8.57641 7.3305 8.16484 7.71107 8.03752L7.71014 8.03784C7.71021 8.03781 7.71027 8.0378 7.71107 8.03752L7.72267 8.03345C7.73386 8.02947 7.7522 8.02282 7.77666 8.0135C7.8257 7.99482 7.89862 7.9657 7.98735 7.92627C8.16686 7.84648 8.40067 7.72906 8.6293 7.57664C9.13083 7.24229 9.39636 6.88659 9.39636 6.5454L9.39636 6.54432C9.39687 6.20082 9.27579 5.86821 9.05458 5.60543C8.83336 5.34264 8.52628 5.16662 8.18772 5.10854Z" fill="#33CD83"/>
<path fill-rule="evenodd" clip-rule="evenodd" d="M7.27274 11.6363C7.27274 11.2347 7.59835 10.9091 8.00001 10.9091H8.00728C8.40894 10.9091 8.73455 11.2347 8.73455 11.6363C8.73455 12.038 8.40894 12.3636 8.00728 12.3636H8.00001C7.59835 12.3636 7.27274 12.038 7.27274 11.6363Z" fill="#33CD83"/>
</svg>
