<svg width="16" height="16" viewBox="0 0 16 16" fill="none" xmlns="http://www.w3.org/2000/svg">
<path fill-rule="evenodd" clip-rule="evenodd" d="M7.30117 1.49124C8.256 0.536415 9.55102 0 10.9013 0C12.2517 0 13.5467 0.536415 14.5015 1.49124C15.4563 2.44607 15.9928 3.74109 15.9928 5.09141C15.9928 6.44148 15.4566 7.73626 14.5021 8.69103C14.5019 8.69122 14.5017 8.6914 14.5015 8.69159L9.60231 13.6053C9.46591 13.7421 9.28067 13.819 9.08748 13.819H2.908C2.50649 13.819 2.181 13.4935 2.181 13.092V6.91255C2.181 6.71973 2.25759 6.53482 2.39393 6.39848L7.30117 1.49124ZM10.9013 1.454C9.93664 1.454 9.01145 1.83722 8.3293 2.51937L3.635 7.21368V12.365H8.78572L13.4726 7.66422L13.4734 7.66346C14.1555 6.98131 14.5388 6.05612 14.5388 5.09141C14.5388 4.12671 14.1555 3.20152 13.4734 2.51937C12.7912 1.83722 11.866 1.454 10.9013 1.454Z" fill="#33CD83"/>
<path fill-rule="evenodd" clip-rule="evenodd" d="M11.419 4.58085C11.703 4.86476 11.703 5.32507 11.419 5.60898L1.24106 15.787C0.957153 16.0709 0.496843 16.0709 0.212933 15.787C-0.0709777 15.5031 -0.0709777 15.0427 0.212933 14.7588L10.3909 4.58085C10.6748 4.29694 11.1351 4.29694 11.419 4.58085Z" fill="#33CD83"/>
<path fill-rule="evenodd" clip-rule="evenodd" d="M5.08899 10.184C5.08899 9.78252 5.41448 9.45703 5.81599 9.45703H11.9955C12.397 9.45703 12.7225 9.78252 12.7225 10.184C12.7225 10.5855 12.397 10.911 11.9955 10.911H5.81599C5.41448 10.911 5.08899 10.5855 5.08899 10.184Z" fill="#33CD83"/>
</svg>
