<svg width="30" height="21" viewBox="0 0 30 21" fill="none" xmlns="http://www.w3.org/2000/svg">
<path fill-rule="evenodd" clip-rule="evenodd" d="M0.857147 7.28526C0.857147 6.49628 1.49674 5.85669 2.28572 5.85669H28C28.789 5.85669 29.4286 6.49628 29.4286 7.28526C29.4286 8.07424 28.789 8.71383 28 8.71383H2.28572C1.49674 8.71383 0.857147 8.07424 0.857147 7.28526Z" fill="#33CD83"/>
<path fill-rule="evenodd" clip-rule="evenodd" d="M0.857147 1.57115C0.857147 0.782171 1.49674 0.142578 2.28572 0.142578H28C28.789 0.142578 29.4286 0.782171 29.4286 1.57115C29.4286 2.36013 28.789 2.99972 28 2.99972H2.28572C1.49674 2.99972 0.857147 2.36013 0.857147 1.57115Z" fill="#33CD83"/>
<path fill-rule="evenodd" clip-rule="evenodd" d="M0.857147 12.9999C0.857147 12.2109 1.49674 11.5713 2.28572 11.5713H28C28.789 11.5713 29.4286 12.2109 29.4286 12.9999C29.4286 13.7888 28.789 14.4284 28 14.4284H2.28572C1.49674 14.4284 0.857147 13.7888 0.857147 12.9999Z" fill="#33CD83"/>
<path fill-rule="evenodd" clip-rule="evenodd" d="M0.857147 18.7138C0.857147 17.9249 1.49674 17.2853 2.28572 17.2853H28C28.789 17.2853 29.4286 17.9249 29.4286 18.7138C29.4286 19.5028 28.789 20.1424 28 20.1424H2.28572C1.49674 20.1424 0.857147 19.5028 0.857147 18.7138Z" fill="#33CD83"/>
</svg>
