<svg width="18" height="19" viewBox="0 0 18 19" fill="none" xmlns="http://www.w3.org/2000/svg">
<path fill-rule="evenodd" clip-rule="evenodd" d="M3.44759 9.50001C2.99572 9.50001 2.62941 9.86632 2.62941 10.3182V16.0455C2.62941 16.4973 2.99572 16.8636 3.44759 16.8636H14.9021C15.354 16.8636 15.7203 16.4973 15.7203 16.0455V10.3182C15.7203 9.86632 15.354 9.50001 14.9021 9.50001H3.44759ZM0.993042 10.3182C0.993042 8.96258 2.09198 7.86365 3.44759 7.86365H14.9021C16.2577 7.86365 17.3567 8.96258 17.3567 10.3182V16.0455C17.3567 17.4011 16.2577 18.5 14.9021 18.5H3.44759C2.09198 18.5 0.993042 17.4011 0.993042 16.0455V10.3182Z" fill="#AA9DAF"/>
<path fill-rule="evenodd" clip-rule="evenodd" d="M9.1749 2.13636C8.30692 2.13636 7.47449 2.48117 6.86073 3.09492C6.24698 3.70868 5.90217 4.54111 5.90217 5.40909V8.68182C5.90217 9.13369 5.53586 9.5 5.08399 9.5C4.63212 9.5 4.26581 9.13369 4.26581 8.68182V5.40909C4.26581 4.10712 4.78301 2.85847 5.70365 1.93784C6.62428 1.01721 7.87293 0.5 9.1749 0.5C10.4769 0.5 11.7255 1.01721 12.6462 1.93784C13.5668 2.85847 14.084 4.10712 14.084 5.40909V8.68182C14.084 9.13369 13.7177 9.5 13.2658 9.5C12.8139 9.5 12.4476 9.13369 12.4476 8.68182V5.40909C12.4476 4.54111 12.1028 3.70868 11.4891 3.09492C10.8753 2.48117 10.0429 2.13636 9.1749 2.13636Z" fill="#AA9DAF"/>
</svg>
