<svg width="16" height="17" viewBox="0 0 16 17" fill="none" xmlns="http://www.w3.org/2000/svg">
<path fill-rule="evenodd" clip-rule="evenodd" d="M0.793304 6.10004C0.793304 5.65822 1.15147 5.30005 1.5933 5.30005H14.3932C14.835 5.30005 15.1932 5.65822 15.1932 6.10004C15.1932 6.54187 14.835 6.90003 14.3932 6.90003H1.5933C1.15147 6.90003 0.793304 6.54187 0.793304 6.10004Z" fill="#AA9DAF"/>
<path fill-rule="evenodd" clip-rule="evenodd" d="M0.793304 10.9C0.793304 10.4581 1.15147 10.1 1.5933 10.1H14.3932C14.835 10.1 15.1932 10.4581 15.1932 10.9C15.1932 11.3418 14.835 11.7 14.3932 11.7H1.5933C1.15147 11.7 0.793304 11.3418 0.793304 10.9Z" fill="#AA9DAF"/>
<path fill-rule="evenodd" clip-rule="evenodd" d="M6.4816 0.504964C6.92073 0.553755 7.23715 0.949286 7.18836 1.38841L5.58837 15.7883C5.53958 16.2274 5.14405 16.5438 4.70493 16.495C4.26581 16.4462 3.94938 16.0507 3.99817 15.6116L5.59816 1.21172C5.64695 0.772597 6.04248 0.456172 6.4816 0.504964Z" fill="#AA9DAF"/>
<path fill-rule="evenodd" clip-rule="evenodd" d="M11.2816 0.504964C11.7207 0.553755 12.0371 0.949286 11.9883 1.38841L10.3883 15.7883C10.3395 16.2274 9.944 16.5438 9.50488 16.495C9.06576 16.4462 8.74933 16.0507 8.79812 15.6116L10.3981 1.21172C10.4469 0.772597 10.8424 0.456172 11.2816 0.504964Z" fill="#AA9DAF"/>
</svg>
