<svg width="18" height="17" viewBox="0 0 18 17" fill="none" xmlns="http://www.w3.org/2000/svg">
<path fill-rule="evenodd" clip-rule="evenodd" d="M0 0.895703C0 0.453875 0.358172 0.0957031 0.8 0.0957031H5.6C6.66087 0.0957031 7.67828 0.51713 8.42843 1.26728C9.17857 2.01742 9.6 3.03484 9.6 4.0957V15.2957C9.6 15.7375 9.24183 16.0957 8.8 16.0957C8.35817 16.0957 8 15.7375 8 15.2957C8 14.8714 7.83143 14.4644 7.53137 14.1643C7.23131 13.8643 6.82435 13.6957 6.4 13.6957H0.8C0.358172 13.6957 0 13.3375 0 12.8957V0.895703ZM8 12.5244V4.0957C8 3.45918 7.74714 2.84873 7.29706 2.39865C6.84697 1.94856 6.23652 1.6957 5.6 1.6957H1.6V12.0957H6.4C6.96658 12.0957 7.51768 12.246 8 12.5244Z" fill="#33CD83"/>
<path fill-rule="evenodd" clip-rule="evenodd" d="M9.17157 1.26728C9.92172 0.51713 10.9391 0.0957031 12 0.0957031H16.8C17.2418 0.0957031 17.6 0.453875 17.6 0.895703V12.8957C17.6 13.3375 17.2418 13.6957 16.8 13.6957H11.2C10.7757 13.6957 10.3687 13.8643 10.0686 14.1643C9.76857 14.4644 9.6 14.8714 9.6 15.2957C9.6 15.7375 9.24183 16.0957 8.8 16.0957C8.35817 16.0957 8 15.7375 8 15.2957V4.0957C8 3.03484 8.42143 2.01742 9.17157 1.26728ZM9.6 12.5244C10.0823 12.246 10.6334 12.0957 11.2 12.0957H16V1.6957H12C11.3635 1.6957 10.753 1.94856 10.3029 2.39865C9.85286 2.84873 9.6 3.45918 9.6 4.0957V12.5244Z" fill="#33CD83"/>
</svg>
