<svg width="22" height="19" viewBox="0 0 22 19" fill="none" xmlns="http://www.w3.org/2000/svg">
<path fill-rule="evenodd" clip-rule="evenodd" d="M1.43236 1.38715C1.7259 1.09362 2.12402 0.928711 2.53914 0.928711H19.7565C20.1716 0.928711 20.5698 1.09362 20.8633 1.38715C21.1568 1.68069 21.3217 2.07881 21.3217 2.49393V18.1461C21.3217 18.4173 21.1813 18.6692 20.9506 18.8118C20.7199 18.9544 20.4317 18.9674 20.1891 18.8461L17.4087 17.4559L14.6283 18.8461C14.4079 18.9562 14.1486 18.9562 13.9283 18.8461L11.1478 17.4559L8.36739 18.8461C8.14707 18.9562 7.88773 18.9562 7.66741 18.8461L4.88697 17.4559L2.10652 18.8461C1.86392 18.9674 1.57582 18.9544 1.34509 18.8118C1.11436 18.6692 0.973923 18.4173 0.973923 18.1461V2.49393C0.973923 2.07881 1.13883 1.68069 1.43236 1.38715ZM19.7565 2.49393L2.53914 2.49393L2.53914 16.8798L4.53697 15.8809C4.7573 15.7707 5.01663 15.7707 5.23696 15.8809L8.0174 17.2711L10.7978 15.8809C11.0182 15.7707 11.2775 15.7707 11.4978 15.8809L14.2783 17.2711L17.0587 15.8809C17.279 15.7707 17.5384 15.7707 17.7587 15.8809L19.7565 16.8798V2.49393Z" fill="#33CD83"/>
<path fill-rule="evenodd" clip-rule="evenodd" d="M8.80001 5.62436C9.09644 5.62436 9.36743 5.79184 9.5 6.05698L12.6304 12.3178C12.8237 12.7044 12.667 13.1745 12.2804 13.3678C11.8938 13.5611 11.4238 13.4044 11.2305 13.0178L8.80001 8.15694L6.36956 13.0178C6.17627 13.4044 5.70617 13.5611 5.31958 13.3678C4.93299 13.1745 4.77629 12.7044 4.96959 12.3178L8.10002 6.05698C8.23259 5.79184 8.50358 5.62436 8.80001 5.62436Z" fill="#33CD83"/>
<path fill-rule="evenodd" clip-rule="evenodd" d="M5.66957 11.1026C5.66957 10.6704 6.01996 10.32 6.45218 10.32H11.1478C11.5801 10.32 11.9304 10.6704 11.9304 11.1026C11.9304 11.5348 11.5801 11.8852 11.1478 11.8852H6.45218C6.01996 11.8852 5.66957 11.5348 5.66957 11.1026Z" fill="#33CD83"/>
<path fill-rule="evenodd" clip-rule="evenodd" d="M12.7131 9.53741C12.7131 9.10518 13.0634 8.7548 13.4957 8.7548H17.4087C17.8409 8.7548 18.1913 9.10518 18.1913 9.53741C18.1913 9.96963 17.8409 10.32 17.4087 10.32H13.4957C13.0634 10.32 12.7131 9.96963 12.7131 9.53741Z" fill="#33CD83"/>
<path fill-rule="evenodd" clip-rule="evenodd" d="M15.4522 6.79828C15.8844 6.79828 16.2348 7.14866 16.2348 7.58088V11.4939C16.2348 11.9262 15.8844 12.2765 15.4522 12.2765C15.02 12.2765 14.6696 11.9262 14.6696 11.4939V7.58088C14.6696 7.14866 15.02 6.79828 15.4522 6.79828Z" fill="#33CD83"/>
</svg>
