<svg width="14" height="22" viewBox="0 0 14 22" fill="none" xmlns="http://www.w3.org/2000/svg">
<path fill-rule="evenodd" clip-rule="evenodd" d="M7 2.60693C4.10051 2.60693 1.75 4.95744 1.75 7.85693C1.75 10.7564 4.10051 13.1069 7 13.1069C9.8995 13.1069 12.25 10.7564 12.25 7.85693C12.25 4.95744 9.8995 2.60693 7 2.60693ZM0 7.85693C0 3.99094 3.13401 0.856934 7 0.856934C10.866 0.856934 14 3.99094 14 7.85693C14 11.7229 10.866 14.8569 7 14.8569C3.13401 14.8569 0 11.7229 0 7.85693Z" fill="#33CD83"/>
<path fill-rule="evenodd" clip-rule="evenodd" d="M10.2012 12.1345C10.6802 12.071 11.1201 12.4078 11.1837 12.8868L12.2424 20.8668C12.2866 21.1999 12.1362 21.5288 11.8554 21.7133C11.5745 21.8977 11.2129 21.9051 10.9248 21.7322L7 19.3773L3.07519 21.7322C2.78707 21.9051 2.42542 21.8977 2.14459 21.7133C1.86377 21.5288 1.71338 21.1998 1.75762 20.8667L2.81637 12.8955C2.88 12.4164 3.31992 12.0797 3.79896 12.1433C4.278 12.2069 4.61476 12.6468 4.55114 13.1259L3.73139 19.2977L6.54982 17.6066C6.82692 17.4404 7.17309 17.4404 7.45019 17.6066L10.2689 19.2979L9.44885 13.117C9.3853 12.638 9.72212 12.1981 10.2012 12.1345Z" fill="#33CD83"/>
</svg>
