<svg width="18" height="17" viewBox="0 0 18 17" fill="none" xmlns="http://www.w3.org/2000/svg">
<path fill-rule="evenodd" clip-rule="evenodd" d="M8.99312 0.375C9.28284 0.375 9.54743 0.53947 9.67567 0.799263L11.8508 5.2058L16.715 5.91678C17.0016 5.95867 17.2396 6.15963 17.329 6.43518C17.4183 6.71074 17.3435 7.01312 17.136 7.21523L13.6169 10.6428L14.4474 15.4851C14.4964 15.7707 14.379 16.0594 14.1446 16.2297C13.9102 16.4 13.5994 16.4224 13.3429 16.2875L8.99312 14L4.64332 16.2875C4.38686 16.4224 4.07608 16.4 3.84165 16.2297C3.60723 16.0594 3.48982 15.7707 3.5388 15.4851L4.36931 10.6428L0.850219 7.21523C0.642708 7.01312 0.567904 6.71074 0.65725 6.43518C0.746595 6.15963 0.984601 5.95867 1.27123 5.91678L6.13545 5.2058L8.31056 0.799263C8.4388 0.53947 8.7034 0.375 8.99312 0.375ZM8.99312 2.85588L7.32363 6.23808C7.21284 6.46251 6.99881 6.61814 6.75116 6.65434L3.01665 7.2002L5.71832 9.83162C5.89786 10.0065 5.97981 10.2585 5.93744 10.5056L5.30001 14.2221L8.63882 12.4663C8.86062 12.3496 9.12561 12.3496 9.34741 12.4663L12.6862 14.2221L12.0488 10.5056C12.0064 10.2585 12.0884 10.0065 12.2679 9.83162L14.9696 7.2002L11.2351 6.65434C10.9874 6.61814 10.7734 6.46251 10.6626 6.23808L8.99312 2.85588Z" fill="#AA9DAF"/>
</svg>
