<svg width="18" height="17" viewBox="0 0 18 17" fill="none" xmlns="http://www.w3.org/2000/svg">
<path fill-rule="evenodd" clip-rule="evenodd" d="M11.9619 0.554553C12.2014 0.315149 12.5895 0.315149 12.8289 0.554553L17.4266 5.15229C17.5769 5.30252 17.6386 5.51983 17.5898 5.72661C17.541 5.93339 17.3886 6.10015 17.187 6.16734L15.4852 6.73461L12.8345 9.38528C12.8312 9.38871 12.8278 9.39211 12.8244 9.39547L6.85267 15.3672C6.85251 15.3673 6.85235 15.3675 6.85219 15.3676C6.53405 15.6869 6.15604 15.9402 5.73983 16.113C5.32341 16.286 4.87693 16.375 4.42602 16.375C3.97511 16.375 3.52863 16.286 3.11221 16.113C2.69614 15.9402 2.31826 15.687 2.00019 15.368C1.68113 15.0499 1.42795 14.672 1.25515 14.256C1.08219 13.8395 0.993164 13.3931 0.993164 12.9421C0.993164 12.4912 1.08219 12.0448 1.25515 11.6283C1.42801 11.2121 1.68132 10.8341 2.00056 10.5159C2.00071 10.5158 2.00086 10.5156 2.00101 10.5155L3.98568 8.53082C3.98983 8.52655 3.99406 8.52232 3.99835 8.51815L11.9619 0.554553ZM4.82593 9.42449C4.82918 9.42227 4.83277 9.41984 4.83671 9.41721C4.86738 9.39676 4.91865 9.36468 4.98932 9.32749C5.13087 9.25299 5.34795 9.15916 5.63181 9.09608C6.18862 8.97235 7.04058 8.95774 8.13657 9.50573C8.97203 9.92346 9.7256 10.0894 10.3734 10.1125L5.98407 14.5018C5.77975 14.7069 5.53693 14.8697 5.26956 14.9807C5.0022 15.0918 4.71553 15.1489 4.42602 15.1489C4.13651 15.1489 3.84985 15.0918 3.58248 14.9807C3.31511 14.8697 3.0723 14.7069 2.86797 14.5018L2.86632 14.5002C2.66122 14.2959 2.49848 14.0531 2.38743 13.7857C2.27639 13.5183 2.21923 13.2317 2.21923 12.9421C2.21923 12.6526 2.27639 12.366 2.38743 12.0986C2.49848 11.8312 2.66122 11.5884 2.86632 11.3841L2.86715 11.3833L4.82593 9.42449ZM11.9956 8.49029C11.9924 8.49253 11.9887 8.49498 11.9847 8.49764C11.9541 8.51808 11.9028 8.55016 11.8321 8.58735C11.6906 8.66185 11.4735 8.75568 11.1896 8.81876C10.6328 8.9425 9.78087 8.9571 8.68488 8.40911C7.84944 7.99139 7.09587 7.82546 6.44806 7.80236L12.3954 1.85499L15.8583 5.31786L14.9602 5.61723C14.8699 5.64732 14.7879 5.69802 14.7206 5.76532L11.9956 8.49029ZM12.0172 8.47495C12.0177 8.47464 12.0179 8.47448 12.0179 8.47448L12.0162 8.4758L12.0146 8.47705L12.0136 8.47783" fill="#AA9DAF"/>
</svg>
