<svg width="15" height="16" viewBox="0 0 15 16" fill="none" xmlns="http://www.w3.org/2000/svg">
<path fill-rule="evenodd" clip-rule="evenodd" d="M1.17157 10.7717C1.92172 10.0215 2.93913 9.6001 4 9.6001H10.4C11.4609 9.6001 12.4783 10.0215 13.2284 10.7717C13.9786 11.5218 14.4 12.5392 14.4 13.6001V15.2001C14.4 15.6419 14.0418 16.0001 13.6 16.0001C13.1582 16.0001 12.8 15.6419 12.8 15.2001V13.6001C12.8 12.9636 12.5471 12.3531 12.0971 11.903C11.647 11.453 11.0365 11.2001 10.4 11.2001H4C3.36348 11.2001 2.75303 11.453 2.30294 11.903C1.85286 12.3531 1.6 12.9636 1.6 13.6001V15.2001C1.6 15.6419 1.24183 16.0001 0.8 16.0001C0.358172 16.0001 0 15.6419 0 15.2001V13.6001C0 12.5392 0.421427 11.5218 1.17157 10.7717Z" fill="#33CD83"/>
<path fill-rule="evenodd" clip-rule="evenodd" d="M7.20001 1.6C5.87453 1.6 4.80001 2.67452 4.80001 4C4.80001 5.32548 5.87453 6.4 7.20001 6.4C8.5255 6.4 9.60001 5.32548 9.60001 4C9.60001 2.67452 8.5255 1.6 7.20001 1.6ZM3.20001 4C3.20001 1.79086 4.99087 0 7.20001 0C9.40915 0 11.2 1.79086 11.2 4C11.2 6.20914 9.40915 8 7.20001 8C4.99087 8 3.20001 6.20914 3.20001 4Z" fill="#33CD83"/>
</svg>
