<svg width="16" height="16" viewBox="0 0 16 16" fill="none" xmlns="http://www.w3.org/2000/svg">
<path fill-rule="evenodd" clip-rule="evenodd" d="M1.96474 10.7715C2.71488 10.0214 3.7323 9.59998 4.79317 9.59998H11.1932C12.254 9.59998 13.2714 10.0214 14.0216 10.7715C14.7717 11.5217 15.1932 12.5391 15.1932 13.6V15.2C15.1932 15.6418 14.835 16 14.3932 16C13.9513 16 13.5932 15.6418 13.5932 15.2V13.6C13.5932 12.9635 13.3403 12.353 12.8902 11.9029C12.4401 11.4528 11.8297 11.2 11.1932 11.2H4.79317C4.15665 11.2 3.5462 11.4528 3.09611 11.9029C2.64602 12.353 2.39317 12.9635 2.39317 13.6V15.2C2.39317 15.6418 2.03499 16 1.59317 16C1.15134 16 0.793167 15.6418 0.793167 15.2V13.6C0.793167 12.5391 1.21459 11.5217 1.96474 10.7715Z" fill="#AA9DAF"/>
<path fill-rule="evenodd" clip-rule="evenodd" d="M7.99316 1.6C6.66768 1.6 5.59316 2.67452 5.59316 4C5.59316 5.32548 6.66768 6.4 7.99316 6.4C9.31865 6.4 10.3932 5.32548 10.3932 4C10.3932 2.67452 9.31865 1.6 7.99316 1.6ZM3.99316 4C3.99316 1.79086 5.78403 0 7.99316 0C10.2023 0 11.9932 1.79086 11.9932 4C11.9932 6.20914 10.2023 8 7.99316 8C5.78403 8 3.99316 6.20914 3.99316 4Z" fill="#AA9DAF"/>
</svg>
